<?xml version="1.0" encoding="UTF-8"?>
<svg height="128px" viewBox="0 0 128 128" width="128px" xmlns="http://www.w3.org/2000/svg" xmlns:xlink="http://www.w3.org/1999/xlink">
    <defs>
        <linearGradient id="a" gradientUnits="userSpaceOnUse" x1="96" x2="104" y1="83" y2="83">
            <stop offset="0" stop-color="#e8e7e4"/>
            <stop offset="0.5" stop-color="#ffffff"/>
            <stop offset="1" stop-color="#c9c6c1"/>
        </linearGradient>
        <filter id="b" height="100%" width="100%" x="0%" y="0%">
            <feColorMatrix in="SourceGraphic" type="matrix" values="0 0 0 0 1 0 0 0 0 1 0 0 0 0 1 0 0 0 1 0"/>
        </filter>
        <mask id="c">
            <g filter="url(#b)">
                <rect fill-opacity="0.223" height="128" width="128"/>
            </g>
        </mask>
        <mask id="d">
            <g filter="url(#b)">
                <rect fill-opacity="0.223" height="128" width="128"/>
            </g>
        </mask>
        <clipPath id="e">
            <rect height="128" width="128"/>
        </clipPath>
        <g id="f" clip-path="url(#e)">
            <path d="m 26 8 h 2 v 94 h -2 z m 0 0" fill="#ffffff"/>
        </g>
        <clipPath id="g">
            <rect height="128" width="128"/>
        </clipPath>
        <clipPath id="h">
            <rect height="128" width="128"/>
        </clipPath>
        <mask id="i">
            <g clip-path="url(#h)" filter="url(#b)">
                <g clip-path="url(#g)">
                    <path d="m 24 28 v 92 h 72 c 4.433594 0 8 -3.566406 8 -8 v -76 c 0 -4.433594 -3.566406 -8 -8 -8 z m 0 0" fill="#a51d2d"/>
                    <path d="m 24 102 h 8 v 18 h -8 z m 0 0" fill="#191622"/>
                    <path d="m 26 48 v 70 h 70 c 4.433594 0 8 -3.566406 8 -8 v -54 c 0 -4.433594 -3.566406 -8 -8 -8 z m 0 0" fill="url(#a)"/>
                    <path d="m 24 28 v 76 h 72 c 4.433594 0 8 -3.566406 8 -8 v -60 c 0 -4.433594 -3.566406 -8 -8 -8 z m 0 0" fill="#ac1d2e"/>
                    <path d="m 24 8 v 94 h 72 c 4.433594 0 8 -3.566406 8 -8 v -78 c 0 -4.433594 -3.566406 -8 -8 -8 z m 0 0" fill="#ed333b"/>
                    <path d="m 24 8 h 8 v 94 h -8 z m 0 0" fill="#424048"/>
                    <use mask="url(#d)" xlink:href="#f"/>
                    <path d="m 58 34.019531 v 5.980469 h -0.75 c -2.1875 0 -3.257812 1.207031 -3.257812 3.304688 v 6.617187 c 0 3.082031 -0.941407 4.378906 -2.992188 5.003906 c 2.050781 0.625 2.992188 1.917969 2.992188 5 v 6.769531 c 0 2.097657 1.070312 3.304688 3.257812 3.304688 h 0.75 v 5.828125 h -1.566406 c -5.582032 0 -8.441406 -2.859375 -8.441406 -7.996094 v -7.730469 c 0 -1.429687 -0.761719 -2.105468 -1.964844 -2.101562 h -2.027344 v -5.957031 h 2.027344 c 1.203125 0 1.964844 -0.667969 1.964844 -2.097657 v -7.929687 c 0 -5.136719 2.859374 -7.996094 8.441406 -7.996094 z m 0 0" fill="#ffffff"/>
                    <path d="m 74 34.019531 v 5.980469 h 0.75 c 2.1875 0 3.257812 1.207031 3.257812 3.304688 v 6.617187 c 0 3.082031 0.941407 4.378906 2.992188 5.003906 c -2.050781 0.625 -2.992188 1.917969 -2.992188 5 v 6.769531 c 0 2.097657 -1.070312 3.304688 -3.257812 3.304688 h -0.75 v 5.828125 h 1.566406 c 5.582032 0 8.441406 -2.859375 8.441406 -7.996094 v -7.730469 c 0 -1.429687 0.761719 -2.105468 1.964844 -2.101562 h 2.027344 v -5.957031 h -2.027344 c -1.203125 0 -1.964844 -0.667969 -1.964844 -2.097657 v -7.929687 c 0 -5.136719 -2.859374 -7.996094 -8.441406 -7.996094 z m 0 0" fill="#ffffff"/>
                    <path d="m 24 102 h 8 v 2 h -8 z m 0 0" fill="#191622"/>
                </g>
            </g>
        </mask>
        <mask id="j">
            <g filter="url(#b)">
                <rect fill-opacity="0.8" height="128" width="128"/>
            </g>
        </mask>
        <linearGradient id="k" gradientTransform="matrix(0 0.37 -0.98462 0 295.38501 -30.360001)" gradientUnits="userSpaceOnUse" x1="300" x2="428" y1="235" y2="235">
            <stop offset="0" stop-color="#f9f06b"/>
            <stop offset="1" stop-color="#f5c211"/>
        </linearGradient>
        <clipPath id="l">
            <rect height="128" width="128"/>
        </clipPath>
        <clipPath id="m">
            <rect height="128" width="128"/>
        </clipPath>
    </defs>
    <path d="m 24 28 v 92 h 72 c 4.433594 0 8 -3.566406 8 -8 v -76 c 0 -4.433594 -3.566406 -8 -8 -8 z m 0 0" fill="#a51d2d"/>
    <path d="m 24 102 h 8 v 18 h -8 z m 0 0" fill="#191622"/>
    <path d="m 26 48 v 70 h 70 c 4.433594 0 8 -3.566406 8 -8 v -54 c 0 -4.433594 -3.566406 -8 -8 -8 z m 0 0" fill="url(#a)"/>
    <path d="m 24 28 v 76 h 72 c 4.433594 0 8 -3.566406 8 -8 v -60 c 0 -4.433594 -3.566406 -8 -8 -8 z m 0 0" fill="#ac1d2e"/>
    <path d="m 24 8 v 94 h 72 c 4.433594 0 8 -3.566406 8 -8 v -78 c 0 -4.433594 -3.566406 -8 -8 -8 z m 0 0" fill="#ed333b"/>
    <path d="m 24 8 h 8 v 94 h -8 z m 0 0" fill="#424048"/>
    <use mask="url(#c)" xlink:href="#f"/>
    <path d="m 58 34.019531 v 5.980469 h -0.75 c -2.1875 0 -3.257812 1.207031 -3.257812 3.304688 v 6.617187 c 0 3.082031 -0.941407 4.378906 -2.992188 5.003906 c 2.050781 0.625 2.992188 1.917969 2.992188 5 v 6.769531 c 0 2.097657 1.070312 3.304688 3.257812 3.304688 h 0.75 v 5.828125 h -1.566406 c -5.582032 0 -8.441406 -2.859375 -8.441406 -7.996094 v -7.730469 c 0 -1.429687 -0.761719 -2.105468 -1.964844 -2.101562 h -2.027344 v -5.957031 h 2.027344 c 1.203125 0 1.964844 -0.667969 1.964844 -2.097657 v -7.929687 c 0 -5.136719 2.859374 -7.996094 8.441406 -7.996094 z m 0 0" fill="#ffffff"/>
    <path d="m 74 34.019531 v 5.980469 h 0.75 c 2.1875 0 3.257812 1.207031 3.257812 3.304688 v 6.617187 c 0 3.082031 0.941407 4.378906 2.992188 5.003906 c -2.050781 0.625 -2.992188 1.917969 -2.992188 5 v 6.769531 c 0 2.097657 -1.070312 3.304688 -3.257812 3.304688 h -0.75 v 5.828125 h 1.566406 c 5.582032 0 8.441406 -2.859375 8.441406 -7.996094 v -7.730469 c 0 -1.429687 0.761719 -2.105468 1.964844 -2.101562 h 2.027344 v -5.957031 h -2.027344 c -1.203125 0 -1.964844 -0.667969 -1.964844 -2.097657 v -7.929687 c 0 -5.136719 -2.859374 -7.996094 -8.441406 -7.996094 z m 0 0" fill="#ffffff"/>
    <path d="m 24 102 h 8 v 2 h -8 z m 0 0" fill="#191622"/>
    <g clip-path="url(#m)" mask="url(#i)">
        <g clip-path="url(#l)" mask="url(#j)">
            <path d="m 128 80.640625 v 47.359375 h -128 v -47.359375 z m 0 0" fill="url(#k)"/>
            <path d="m 13.308594 80.640625 l 47.355468 47.359375 h 21.214844 l -47.359375 -47.359375 z m 42.421875 0 l 47.363281 47.359375 h 21.214844 l -47.363282 -47.359375 z m 42.429687 0 l 29.839844 29.839844 v -21.210938 l -8.628906 -8.628906 z m -98.160156 7.90625 v 21.214844 l 18.238281 18.238281 h 21.214844 z m 0 0"/>
        </g>
    </g>
</svg>
